#N canvas 161 22 926 626 10;
#X obj 243 239 biquad~;
#X obj 612 -66 hsl 128 17 30 70 0 1 empty empty gain 5 9 0 10 -204786
-1 -1 6400 0;
#X obj 71 265 biquad~;
#X obj 612 -89 hsl 128 17 30 70 0 1 empty empty gain 5 9 0 10 -204786
-1 -1 6400 0;
#X obj 273 98 - 50;
#X obj 612 -19 hsl 128 17 30 70 0 1 empty empty gain 5 9 0 10 -204786
-1 -1 6400 0;
#X obj 371 353 +~;
#X text 746 -90 bass;
#X text 746 -20 high;
#X obj 371 408 outlet~;
#X obj 274 119 moses 0;
#X obj 274 174 t b f;
#X text 355 185 bandwidth;
#X text 241 185 f;
#X text 269 73 gain;
#X obj 102 121 - 50;
#X obj 103 142 moses 0;
#X obj 103 197 t b f;
#X text 79 208 f;
#X text 104 98 gain;
#X text 149 197 slope;
#X obj 711 232 biquad~;
#X obj 738 91 - 50;
#X obj 739 112 moses 0;
#X obj 739 167 t b f;
#X text 709 178 f;
#X text 740 68 gain;
#X text 794 167 slope;
#X text 106 59 BASS;
#X text 264 45 MED BASS;
#X obj 473 239 biquad~;
#X obj 506 98 - 50;
#X obj 507 119 moses 0;
#X obj 507 174 t b f;
#X text 585 185 bandwidth;
#X text 471 185 f;
#X text 502 73 gain;
#X text 497 45 MED HIGH;
#X text 723 36 HIGH;
#X text 747 -67 medb;
#X obj 612 -43 hsl 128 17 30 70 0 1 empty empty gain 5 9 0 10 -204786
-1 -1 6400 0;
#X text 747 -44 medh;
#X msg 609 -136 50;
#X obj 609 -163 loadbang;
#X obj 243 211 equalizer 700 50 250;
#X obj 473 211 equalizer 2050 50 250;
#X obj 371 375 /~ 4;
#X obj 103 169 * 5;
#X obj 274 146 * 5;
#X obj 507 146 * 5;
#X obj 739 139 * 5;
#X floatatom 408 -128 5 0 0 0 - - -;
#X floatatom 480 -58 5 0 0 0 - - -;
#X obj 71 -4 inlet~;
#X obj 81 234 lowshelf 110 50 2;
#X obj 711 204 highshelf 4900 50 1;
#X connect 0 0 6 0;
#X connect 1 0 4 0;
#X connect 2 0 6 0;
#X connect 3 0 15 0;
#X connect 3 0 52 0;
#X connect 4 0 10 0;
#X connect 5 0 22 0;
#X connect 6 0 46 0;
#X connect 10 0 48 0;
#X connect 10 1 11 0;
#X connect 11 0 44 0;
#X connect 11 1 44 1;
#X connect 15 0 16 0;
#X connect 16 0 47 0;
#X connect 16 1 17 0;
#X connect 17 0 54 0;
#X connect 17 1 54 1;
#X connect 21 0 6 0;
#X connect 22 0 23 0;
#X connect 23 0 50 0;
#X connect 23 1 24 0;
#X connect 24 0 55 0;
#X connect 24 1 55 1;
#X connect 30 0 6 0;
#X connect 31 0 32 0;
#X connect 32 0 49 0;
#X connect 32 1 33 0;
#X connect 33 0 45 0;
#X connect 33 1 45 1;
#X connect 40 0 31 0;
#X connect 42 0 3 0;
#X connect 42 0 1 0;
#X connect 42 0 40 0;
#X connect 42 0 5 0;
#X connect 43 0 42 0;
#X connect 44 0 0 0;
#X connect 45 0 30 0;
#X connect 46 0 9 0;
#X connect 47 0 17 0;
#X connect 48 0 11 0;
#X connect 49 0 33 0;
#X connect 50 0 24 0;
#X connect 51 0 3 0;
#X connect 53 0 0 0;
#X connect 53 0 2 0;
#X connect 53 0 30 0;
#X connect 53 0 21 0;
#X connect 54 0 2 0;
#X connect 55 0 21 0;
