#N canvas 184 182 594 346 10;
#N canvas 502 340 500 315 using 0;
#X obj 67 239 outlet~;
#X obj 65 134 biquad~;
#X obj 66 154 biquad~;
#X obj 66 174 biquad~;
#X obj 194 134 biquad~;
#X obj 193 154 biquad~;
#X obj 194 174 biquad~;
#X obj 163 111 bandpass 1175 490;
#X obj 305 111 highpass 2350 130;
#X obj 334 134 biquad~;
#X obj 334 154 biquad~;
#X obj 163 25 loadbang;
#X obj 193 239 outlet~;
#X obj 335 239 outlet~;
#X obj 66 25 inlet~ signal;
#X obj 35 110 lowpass 500 310;
#X connect 1 0 2 0;
#X connect 2 0 3 0;
#X connect 3 0 0 0;
#X connect 4 0 5 0;
#X connect 5 0 6 0;
#X connect 6 0 12 0;
#X connect 7 0 4 0;
#X connect 7 0 5 0;
#X connect 7 0 6 0;
#X connect 8 0 9 0;
#X connect 8 0 10 0;
#X connect 9 0 10 0;
#X connect 10 0 13 0;
#X connect 11 0 7 0;
#X connect 11 0 8 0;
#X connect 11 0 15 0;
#X connect 14 0 1 0;
#X connect 14 0 4 0;
#X connect 14 0 9 0;
#X connect 15 0 1 0;
#X connect 15 0 2 0;
#X connect 15 0 3 0;
#X restore 320 99 pd using GGEE filter objects;
#N canvas 401 243 560 501 output_mixer 0;
#X obj 270 -19 inlet~ bass;
#X obj 360 -19 inlet~ mids;
#X obj 446 -19 inlet~ highs;
#X obj 87 35 inlet bass;
#X obj 127 60 inlet mids;
#X obj 157 86 inlet highs;
#X obj 111 235 *~;
#X obj 141 235 *~;
#X obj 71 235 *~;
#X obj 80 114 expr ($f1 / 100) + 1;
#X obj 131 145 expr ($f1 / 100) + 1;
#X obj 159 185 expr ($f1 / 100) + 1;
#X obj 70 325 *~;
#X obj 226 107 inlet vol;
#X obj 152 305 + 1;
#X obj 64 374 outlet~;
#X connect 0 0 8 0;
#X connect 1 0 6 0;
#X connect 2 0 7 0;
#X connect 3 0 9 0;
#X connect 4 0 10 0;
#X connect 5 0 11 0;
#X connect 6 0 12 0;
#X connect 7 0 12 0;
#X connect 8 0 12 0;
#X connect 9 0 8 1;
#X connect 10 0 6 1;
#X connect 11 0 7 1;
#X connect 12 0 15 0;
#X connect 13 0 14 0;
#X connect 14 0 12 1;
#X restore 170 246 pd output_mixer;
#X obj 320 -7 inlet~;
#X obj 172 303 outlet~;
#X obj 8 25 nbx 3 14 -100 100 0 1 empty \$0-hi empty 0 -6 0 10 -262144
-1 -1 0 256;
#X obj 8 43 nbx 3 14 -100 100 0 1 empty \$0-mid empty 0 -6 0 10 -262144
-1 -1 0 256;
#X obj 8 61 nbx 3 14 -100 100 0 1 empty \$0-low empty 0 -6 0 10 -262144
-1 -1 0 256;
#X text 48 25 hi;
#X text 48 43 mid;
#X text 46 62 low;
#X obj 80 16 vsl 15 60 -1 1 0 1 empty \$0-gaiin empty 0 -8 0 8 -262144
-1 -1 2950 1;
#X text 79 80 vol;
#X msg 49 143 0;
#X obj 8 181 s \$0-low;
#X obj 70 181 s \$0-mid;
#X obj 130 181 s \$0-hi;
#X obj 184 181 s \$0-gaiin;
#X obj 6 81 bng 15 250 50 0 empty empty empty 0 -6 0 8 -262144 -1 -1
;
#X text 22 84 reset;
#X connect 0 0 1 4;
#X connect 0 1 1 5;
#X connect 0 2 1 6;
#X connect 1 0 3 0;
#X connect 2 0 0 0;
#X connect 4 0 1 2;
#X connect 5 0 1 1;
#X connect 6 0 1 0;
#X connect 10 0 1 3;
#X connect 12 0 13 0;
#X connect 12 0 14 0;
#X connect 12 0 15 0;
#X connect 12 0 16 0;
#X connect 17 0 12 0;
#X coords 0 -1 1 1 105 100 1 0 0;
