#N canvas 252 22 765 742 10;
#X obj 53 47 grid grid2 200 0 199 200 0 199 1 1 1 10 10 154 145;
#X obj 283 51 grid grid3 200 0 199 200 0 199 1 1 1 10 10 170 -11;
#X obj 499 51 grid grid4 200 0 199 200 0 199 1 1 1 10 10 801 16;
#X text 119 19 YOU;
#X text 324 21 SPEAKER (LEFT);
#X text 550 24 SPEAKER (RIGHT);
#X floatatom 53 309 5 0 0 0 - - -;
#X floatatom 190 313 5 0 0 0 - - -;
#X floatatom 284 307 5 0 0 0 - - -;
#X floatatom 453 300 5 0 0 0 - - -;
#X floatatom 538 318 5 0 0 0 - - -;
#X floatatom 669 321 5 0 0 0 - - -;
#N canvas 816 290 450 300 angles 1;
#X obj 17 19 inlet;
#X obj 69 18 inlet;
#X obj 239 23 inlet;
#X obj 150 22 inlet;
#X obj 372 25 inlet;
#X obj 301 22 inlet;
#X obj 99 200 outlet;
#X obj 266 197 outlet;
#N canvas 299 209 694 459 leftangle 0;
#X obj -1590 -1658 expr if($f1<=$f3 && $f2 <= $f4 \, 1 \, 0) \; if($f1<=$f3
&& $f2 > $f4 \, 1 \, 0) \; if($f1>$f3 && $f2 > $f4 \, 1 \, 0) \; if($f1>$f3
&& $f2 <= $f4 \, 1 \, 0) \;;
#X floatatom -1594 -1555 5 0 0 0 - - -;
#X floatatom -1506 -1551 5 0 0 0 - - -;
#X floatatom -1429 -1553 5 0 0 0 - - -;
#X floatatom -1366 -1549 5 0 0 0 - - -;
#N canvas 709 326 450 300 valchange 0;
#X obj 89 24 inlet;
#X obj 152 24 inlet;
#X obj 210 24 inlet;
#X obj 274 25 inlet;
#X obj 108 82 int;
#X obj 166 76 int;
#X obj 217 80 int;
#X obj 273 81 int;
#X msg 37 73 bang;
#X obj 80 166 outlet;
#X obj 133 169 outlet;
#X obj 197 166 outlet;
#X obj 268 172 outlet;
#X connect 0 0 4 1;
#X connect 0 0 8 0;
#X connect 1 0 5 1;
#X connect 1 0 8 0;
#X connect 2 0 6 1;
#X connect 2 0 8 0;
#X connect 3 0 7 1;
#X connect 3 0 8 0;
#X connect 4 0 9 0;
#X connect 5 0 10 0;
#X connect 6 0 11 0;
#X connect 7 0 12 0;
#X connect 8 0 4 0;
#X connect 8 0 5 0;
#X connect 8 0 6 0;
#X connect 8 0 7 0;
#X restore -1593 -1716 pd valchange;
#N canvas 86 119 450 300 angle 0;
#X obj 57 40 inlet;
#X obj 134 41 inlet;
#X obj 206 39 inlet;
#X obj 270 39 inlet;
#X obj 215 124 -;
#X obj 132 121 -;
#X obj 175 172 /;
#X obj 175 208 abs;
#X obj 177 243 atan;
#X obj 178 275 outlet;
#X floatatom 262 194 5 0 0 0 - - -;
#X floatatom 268 156 5 0 0 0 - - -;
#X floatatom 5 78 5 0 0 0 - - -;
#X floatatom -41 233 5 0 0 0 - - -;
#X obj -104 187 expr if ($f1 == 0 \, 100 \, $f3) \;;
#X msg -80 123 bang;
#X connect 0 0 5 0;
#X connect 1 0 4 0;
#X connect 2 0 5 1;
#X connect 3 0 4 1;
#X connect 4 0 6 0;
#X connect 4 0 11 0;
#X connect 4 0 15 0;
#X connect 4 0 14 1;
#X connect 5 0 6 1;
#X connect 5 0 12 0;
#X connect 5 0 15 0;
#X connect 5 0 14 0;
#X connect 6 0 10 0;
#X connect 6 0 14 2;
#X connect 7 0 8 0;
#X connect 8 0 9 0;
#X connect 14 0 7 0;
#X connect 14 0 13 0;
#X connect 15 0 14 0;
#X restore -1734 -1625 pd angle;
#X floatatom -1682 -1550 5 0 0 0 - - -;
#X floatatom -1664 -1409 5 0 0 0 - - -;
#N canvas 659 300 420 391 leftanglecalc 0;
#X msg 30 78 3.14159;
#X obj 80 21 inlet;
#X obj 147 21 inlet;
#X obj 218 20 inlet;
#X obj 284 20 inlet;
#X obj 354 22 inlet;
#X obj 31 115 / 2;
#X floatatom 22 183 5 0 0 0 - - -;
#X obj 76 148 -;
#X floatatom 76 183 5 0 0 0 - - -;
#X obj 146 64 +;
#X floatatom 152 138 5 0 0 0 - - -;
#X floatatom 358 147 5 0 0 0 - - -;
#X floatatom 231 136 5 0 0 0 - - -;
#X floatatom 306 145 5 0 0 0 - - -;
#X obj 227 98 * -1;
#X obj 303 118 * -1;
#N canvas 69 277 472 309 givaangle 0;
#X obj 255 46 inlet;
#X obj 309 46 inlet;
#X obj 362 47 inlet;
#X obj 415 49 inlet;
#X obj 31 46 inlet;
#X obj 85 46 inlet;
#X obj 138 47 inlet;
#X obj 191 49 inlet;
#X obj 137 170 *;
#X obj 205 170 *;
#X obj 255 173 *;
#X obj 315 174 *;
#X floatatom 136 213 5 0 0 0 - - -;
#X floatatom 202 211 5 0 0 0 - - -;
#X floatatom 242 219 5 0 0 0 - - -;
#X floatatom 306 224 5 0 0 0 - - -;
#X obj 133 311 change;
#X obj 302 311 change;
#X obj 242 311 change;
#X obj 192 310 change;
#X floatatom 218 377 5 0 0 0 - - -;
#X obj 97 256 moses 1;
#X obj 160 261 moses 1;
#X obj 217 262 moses 1;
#X obj 290 265 moses 1;
#X obj 75 115 + 10;
#X obj 36 113 + 10;
#X obj 112 116 + 10;
#X obj 149 119 + 10;
#X obj 218 413 - 10;
#X obj 217 448 outlet;
#X connect 0 0 8 1;
#X connect 1 0 9 1;
#X connect 2 0 10 1;
#X connect 3 0 11 1;
#X connect 4 0 26 0;
#X connect 5 0 25 0;
#X connect 6 0 27 0;
#X connect 7 0 28 0;
#X connect 8 0 12 0;
#X connect 9 0 13 0;
#X connect 10 0 14 0;
#X connect 11 0 15 0;
#X connect 12 0 21 0;
#X connect 13 0 22 0;
#X connect 14 0 23 0;
#X connect 15 0 24 0;
#X connect 16 0 20 0;
#X connect 17 0 20 0;
#X connect 18 0 20 0;
#X connect 19 0 20 0;
#X connect 20 0 29 0;
#X connect 21 1 16 0;
#X connect 22 1 19 0;
#X connect 23 1 18 0;
#X connect 24 1 17 0;
#X connect 25 0 9 0;
#X connect 26 0 8 0;
#X connect 27 0 10 0;
#X connect 28 0 11 0;
#X connect 29 0 30 0;
#X restore 226 259 pd givaangle;
#X obj 221 320 outlet;
#X connect 0 0 6 0;
#X connect 1 0 0 0;
#X connect 1 0 8 1;
#X connect 1 0 12 0;
#X connect 2 0 17 4;
#X connect 3 0 17 5;
#X connect 4 0 17 6;
#X connect 5 0 17 7;
#X connect 6 0 7 0;
#X connect 6 0 8 0;
#X connect 7 0 10 0;
#X connect 8 0 9 0;
#X connect 9 0 10 1;
#X connect 10 0 11 0;
#X connect 11 0 15 0;
#X connect 11 0 17 0;
#X connect 12 0 16 0;
#X connect 12 0 17 3;
#X connect 13 0 17 1;
#X connect 14 0 17 2;
#X connect 15 0 13 0;
#X connect 16 0 14 0;
#X connect 17 0 18 0;
#X restore -1663 -1449 pd leftanglecalc;
#X obj -1669 -1367 outlet;
#X obj -1680 -1770 inlet;
#X obj -1583 -1771 inlet;
#X obj -1444 -1770 inlet;
#X obj -1520 -1769 inlet;
#X connect 0 0 1 0;
#X connect 0 1 2 0;
#X connect 0 2 3 0;
#X connect 0 3 4 0;
#X connect 1 0 9 1;
#X connect 2 0 9 2;
#X connect 3 0 9 3;
#X connect 4 0 9 4;
#X connect 5 0 0 0;
#X connect 5 0 6 0;
#X connect 5 1 0 1;
#X connect 5 1 6 1;
#X connect 5 2 0 2;
#X connect 5 2 6 2;
#X connect 5 3 0 3;
#X connect 5 3 6 3;
#X connect 6 0 7 0;
#X connect 7 0 9 0;
#X connect 8 0 10 0;
#X connect 9 0 8 0;
#X connect 11 0 5 0;
#X connect 12 0 5 1;
#X connect 13 0 5 3;
#X connect 14 0 5 2;
#X restore 102 88 pd leftangle;
#N canvas 299 209 694 459 rightangle 0;
#X obj -1590 -1658 expr if($f1<=$f3 && $f2 <= $f4 \, 1 \, 0) \; if($f1<=$f3
&& $f2 > $f4 \, 1 \, 0) \; if($f1>$f3 && $f2 > $f4 \, 1 \, 0) \; if($f1>$f3
&& $f2 <= $f4 \, 1 \, 0) \;;
#X floatatom -1594 -1555 5 0 0 0 - - -;
#X floatatom -1506 -1551 5 0 0 0 - - -;
#X floatatom -1429 -1553 5 0 0 0 - - -;
#X floatatom -1366 -1549 5 0 0 0 - - -;
#N canvas 709 326 450 300 valchange 0;
#X obj 89 24 inlet;
#X obj 152 24 inlet;
#X obj 210 24 inlet;
#X obj 274 25 inlet;
#X obj 108 82 int;
#X obj 166 76 int;
#X obj 217 80 int;
#X obj 273 81 int;
#X msg 37 73 bang;
#X obj 80 166 outlet;
#X obj 133 169 outlet;
#X obj 197 166 outlet;
#X obj 268 172 outlet;
#X connect 0 0 4 1;
#X connect 0 0 8 0;
#X connect 1 0 5 1;
#X connect 1 0 8 0;
#X connect 2 0 6 1;
#X connect 2 0 8 0;
#X connect 3 0 7 1;
#X connect 3 0 8 0;
#X connect 4 0 9 0;
#X connect 5 0 10 0;
#X connect 6 0 11 0;
#X connect 7 0 12 0;
#X connect 8 0 4 0;
#X connect 8 0 5 0;
#X connect 8 0 6 0;
#X connect 8 0 7 0;
#X restore -1593 -1716 pd valchange;
#N canvas 86 119 450 300 angle 0;
#X obj 57 40 inlet;
#X obj 134 41 inlet;
#X obj 206 39 inlet;
#X obj 270 39 inlet;
#X obj 215 124 -;
#X obj 132 121 -;
#X obj 175 172 /;
#X obj 175 208 abs;
#X obj 177 243 atan;
#X obj 178 275 outlet;
#X floatatom 262 194 5 0 0 0 - - -;
#X floatatom 268 156 5 0 0 0 - - -;
#X floatatom 5 78 5 0 0 0 - - -;
#X floatatom -41 233 5 0 0 0 - - -;
#X obj -104 187 expr if ($f1 == 0 \, 100 \, $f3) \;;
#X msg -80 123 bang;
#X connect 0 0 5 0;
#X connect 1 0 4 0;
#X connect 2 0 5 1;
#X connect 3 0 4 1;
#X connect 4 0 6 0;
#X connect 4 0 11 0;
#X connect 4 0 15 0;
#X connect 4 0 14 1;
#X connect 5 0 6 1;
#X connect 5 0 12 0;
#X connect 5 0 15 0;
#X connect 5 0 14 0;
#X connect 6 0 10 0;
#X connect 6 0 14 2;
#X connect 7 0 8 0;
#X connect 8 0 9 0;
#X connect 14 0 7 0;
#X connect 14 0 13 0;
#X connect 15 0 14 0;
#X restore -1734 -1625 pd angle;
#X floatatom -1682 -1550 5 0 0 0 - - -;
#X floatatom -1664 -1409 5 0 0 0 - - -;
#X obj -1669 -1367 outlet;
#X obj -1680 -1770 inlet;
#X obj -1583 -1771 inlet;
#X obj -1444 -1770 inlet;
#X obj -1520 -1769 inlet;
#N canvas 126 132 420 391 rightanglecalc 0;
#X msg 30 78 3.14159;
#X obj 80 21 inlet;
#X obj 147 21 inlet;
#X obj 218 20 inlet;
#X obj 284 20 inlet;
#X obj 354 22 inlet;
#X obj 31 115 / 2;
#X floatatom 22 183 5 0 0 0 - - -;
#X obj 76 148 -;
#X floatatom 76 183 5 0 0 0 - - -;
#X floatatom 152 138 5 0 0 0 - - -;
#X floatatom 347 122 5 0 0 0 - - -;
#X floatatom 224 154 5 0 0 0 - - -;
#N canvas 69 277 472 309 givaangle 0;
#X obj 255 46 inlet;
#X obj 309 46 inlet;
#X obj 362 47 inlet;
#X obj 415 49 inlet;
#X obj 31 46 inlet;
#X obj 85 46 inlet;
#X obj 138 47 inlet;
#X obj 191 49 inlet;
#X obj 137 170 *;
#X obj 205 170 *;
#X obj 255 173 *;
#X obj 315 174 *;
#X floatatom 136 213 5 0 0 0 - - -;
#X floatatom 202 211 5 0 0 0 - - -;
#X floatatom 242 219 5 0 0 0 - - -;
#X floatatom 306 224 5 0 0 0 - - -;
#X obj 133 311 change;
#X obj 302 311 change;
#X obj 242 311 change;
#X obj 192 310 change;
#X floatatom 218 377 5 0 0 0 - - -;
#X obj 97 256 moses 1;
#X obj 160 261 moses 1;
#X obj 217 262 moses 1;
#X obj 290 265 moses 1;
#X obj 75 115 + 10;
#X obj 36 113 + 10;
#X obj 112 116 + 10;
#X obj 149 119 + 10;
#X obj 218 413 - 10;
#X obj 217 448 outlet;
#X connect 0 0 8 1;
#X connect 1 0 9 1;
#X connect 2 0 10 1;
#X connect 3 0 11 1;
#X connect 4 0 26 0;
#X connect 5 0 25 0;
#X connect 6 0 27 0;
#X connect 7 0 28 0;
#X connect 8 0 12 0;
#X connect 9 0 13 0;
#X connect 10 0 14 0;
#X connect 11 0 15 0;
#X connect 12 0 21 0;
#X connect 13 0 22 0;
#X connect 14 0 23 0;
#X connect 15 0 24 0;
#X connect 16 0 20 0;
#X connect 17 0 20 0;
#X connect 18 0 20 0;
#X connect 19 0 20 0;
#X connect 20 0 29 0;
#X connect 21 1 16 0;
#X connect 22 1 19 0;
#X connect 23 1 18 0;
#X connect 24 1 17 0;
#X connect 25 0 9 0;
#X connect 26 0 8 0;
#X connect 27 0 10 0;
#X connect 28 0 11 0;
#X connect 29 0 30 0;
#X restore 226 259 pd givaangle;
#X obj 221 320 outlet;
#X obj 342 90 +;
#X obj 213 123 * -1;
#X obj 291 124 * -1;
#X floatatom 292 157 5 0 0 0 - - -;
#X connect 0 0 6 0;
#X connect 1 0 0 0;
#X connect 1 0 8 1;
#X connect 1 0 10 0;
#X connect 2 0 13 4;
#X connect 3 0 13 5;
#X connect 4 0 13 6;
#X connect 5 0 13 7;
#X connect 6 0 7 0;
#X connect 6 0 8 0;
#X connect 7 0 15 0;
#X connect 8 0 9 0;
#X connect 9 0 15 1;
#X connect 10 0 13 0;
#X connect 10 0 16 0;
#X connect 11 0 13 3;
#X connect 11 0 17 0;
#X connect 12 0 13 1;
#X connect 13 0 14 0;
#X connect 15 0 11 0;
#X connect 16 0 12 0;
#X connect 17 0 18 0;
#X connect 18 0 13 2;
#X restore -1662 -1456 pd rightanglecalc;
#X connect 0 0 1 0;
#X connect 0 1 2 0;
#X connect 0 2 3 0;
#X connect 0 3 4 0;
#X connect 1 0 14 1;
#X connect 2 0 14 2;
#X connect 3 0 14 3;
#X connect 4 0 14 4;
#X connect 5 0 0 0;
#X connect 5 0 6 0;
#X connect 5 1 0 1;
#X connect 5 1 6 1;
#X connect 5 2 0 2;
#X connect 5 2 6 2;
#X connect 5 3 0 3;
#X connect 5 3 6 3;
#X connect 6 0 7 0;
#X connect 7 0 14 0;
#X connect 8 0 9 0;
#X connect 10 0 5 0;
#X connect 11 0 5 1;
#X connect 12 0 5 3;
#X connect 13 0 5 2;
#X connect 14 0 8 0;
#X restore 245 89 pd rightangle;
#X floatatom 76 155 5 0 0 0 - - -;
#X floatatom 254 150 5 0 0 0 - - -;
#X connect 0 0 8 0;
#X connect 0 0 9 0;
#X connect 1 0 8 1;
#X connect 1 0 9 1;
#X connect 2 0 8 3;
#X connect 3 0 8 2;
#X connect 4 0 9 3;
#X connect 5 0 9 2;
#X connect 8 0 10 0;
#X connect 9 0 11 0;
#X connect 10 0 6 0;
#X connect 11 0 7 0;
#X restore 354 404 pd angles;
#X floatatom 318 473 5 0 0 0 - - -;
#X floatatom 421 473 5 0 0 0 - - -;
#X connect 0 0 6 0;
#X connect 0 1 7 0;
#X connect 1 0 8 0;
#X connect 1 1 9 0;
#X connect 2 0 10 0;
#X connect 2 1 11 0;
#X connect 6 0 12 0;
#X connect 7 0 12 1;
#X connect 8 0 12 2;
#X connect 9 0 12 3;
#X connect 10 0 12 4;
#X connect 11 0 12 5;
#X connect 12 0 13 0;
#X connect 12 1 14 0;
