#N canvas 818 94 450 300 10;
#X obj 167 42 inlet;
#X obj 167 75 list;
#X obj 282 44 inlet;
#X obj 245 225 *~;
#X msg 223 101 \$2;
#X obj 236 136 float;
#X obj 224 190 *~;
#X text 68 10 This patch takes in a filename \, volume balance and
overall volume. Then plays the sound;
#X obj 306 213 *~;
#X obj 345 240 *~;
#X obj 162 155 readsf~ 2;
#X msg 103 114 open \$1.wav \, start;
#X obj 109 223 env~;
#X floatatom 105 261 5 0 0 0 - - -;
#X obj 157 224 env~;
#X floatatom 153 262 5 0 0 0 - - -;
#X obj 255 280 outlet~;
#X obj 318 278 outlet~;
#X connect 0 0 1 0;
#X connect 1 0 11 0;
#X connect 1 0 4 0;
#X connect 2 0 9 1;
#X connect 2 0 3 1;
#X connect 3 0 16 0;
#X connect 4 0 5 0;
#X connect 5 0 6 1;
#X connect 5 0 8 1;
#X connect 6 0 3 0;
#X connect 8 0 9 0;
#X connect 9 0 17 0;
#X connect 10 0 6 0;
#X connect 10 0 12 0;
#X connect 10 1 8 0;
#X connect 10 1 14 0;
#X connect 11 0 10 0;
#X connect 12 0 13 0;
#X connect 14 0 15 0;
