#N canvas 644 193 821 483 10;
#X obj 35 46 inlet~;
#X obj 117 313 freeverb~;
#X obj 117 389 outlet~;
#X msg 265 93 roomsize \$1;
#X msg 263 154 damping \$1;
#X msg 268 212 wet \$1;
#X msg 272 233 dry \$1;
#X obj 325 229 expr 1-$f1;
#X obj 352 59 hsl 128 15 0 1 0 0 empty empty empty -2 -8 0 10 -262144
-1 -1 2286 1;
#X floatatom 361 88 5 0 0 0 - - -;
#X obj 370 130 hsl 128 15 0 1 0 0 empty empty empty -2 -8 0 10 -262144
-1 -1 12700 1;
#X floatatom 379 159 5 0 0 0 - - -;
#X obj 397 190 hsl 128 15 0 1 0 0 empty empty empty -2 -8 0 10 -262144
-1 -1 2540 1;
#X floatatom 406 219 5 0 0 0 - - -;
#X msg 408 290 freeze \$1;
#X msg 408 315 bypass \$1;
#X obj 413 263 tgl 15 0 empty empty empty 17 7 0 10 -262144 -1 -1 0
1;
#X obj 483 272 tgl 15 0 empty empty empty 17 7 0 10 -262144 -1 -1 0
1;
#X obj 92 44 inlet~;
#X obj 210 387 outlet~;
#X msg 277 35 0.18;
#X msg 341 33 1;
#X msg 393 35 0.2;
#X obj 329 0 loadbang;
#X obj 177 45 inlet;
#X connect 0 0 1 0;
#X connect 1 0 2 0;
#X connect 1 1 19 0;
#X connect 3 0 1 0;
#X connect 4 0 1 0;
#X connect 5 0 1 0;
#X connect 6 0 1 0;
#X connect 7 0 6 0;
#X connect 8 0 3 0;
#X connect 8 0 9 0;
#X connect 10 0 11 0;
#X connect 10 0 4 0;
#X connect 12 0 13 0;
#X connect 12 0 5 0;
#X connect 13 0 7 0;
#X connect 14 0 1 0;
#X connect 15 0 1 0;
#X connect 16 0 14 0;
#X connect 17 0 15 0;
#X connect 18 0 1 1;
#X connect 20 0 8 0;
#X connect 21 0 10 0;
#X connect 22 0 12 0;
#X connect 23 0 20 0;
#X connect 23 0 21 0;
#X connect 23 0 22 0;
#X connect 24 0 12 0;
