#N canvas 218 67 620 359 10;
#X floatatom 125 246 5 0 0 0 - - -;
#X floatatom 76 65 5 0 0 0 - - -;
#X msg 170 41 bang;
#X obj 285 45 inlet;
#X obj 349 45 inlet;
#X obj 404 50 inlet;
#X obj 447 51 inlet;
#X obj 141 280 outlet;
#X obj 67 32 inlet;
#X obj 133 203 maxlib/scale;
#X obj 87 177 change;
#X obj 86 156 int;
#X obj 185 71 int;
#X obj 237 72 int;
#X obj 135 133 expr if ($f1 >= $f2 && $f1 <= $f3 \, $f1 \, $f4);
#X obj 409 171 int;
#X connect 0 0 7 0;
#X connect 1 0 2 0;
#X connect 1 0 14 0;
#X connect 2 0 12 0;
#X connect 2 0 13 0;
#X connect 3 0 9 1;
#X connect 3 0 12 1;
#X connect 4 0 9 2;
#X connect 4 0 13 1;
#X connect 5 0 9 3;
#X connect 6 0 9 4;
#X connect 8 0 1 0;
#X connect 9 0 0 0;
#X connect 10 0 9 0;
#X connect 11 0 10 0;
#X connect 11 0 15 0;
#X connect 12 0 14 1;
#X connect 13 0 14 2;
#X connect 14 0 11 0;
#X connect 15 0 14 3;
