#N canvas 192 28 450 300 10;
#N canvas 513 105 659 476 directionEQ 0;
#X floatatom 96 234 5 0 0 0 - - -;
#X obj 79 280 equalizer~;
#X obj 203 129 list;
#X obj 233 128 list;
#X obj 109 188 unpack f f f f;
#X obj 167 129 list;
#X floatatom 204 236 5 0 0 0 - - -;
#X obj 217 190 unpack f f f f;
#X floatatom 309 236 5 0 0 0 - - -;
#X obj 322 190 unpack f f f f;
#X obj 95 212 DirectionValues;
#X obj 203 214 DirectionValues;
#X obj 308 214 DirectionValues;
#X obj 52 -18 inlet;
#X obj 7 -18 inlet~;
#X obj 143 463 outlet~;
#X floatatom 69 190 5 0 0 0 - - -;
#X obj 124 130 list;
#X obj 181 317 unpack f f f f;
#X obj 180 360 DirectionValues;
#X obj 180 381 / 100;
#X obj 144 419 *~;
#X floatatom 242 419 5 0 0 0 - - -;
#X obj 112 -12 inlet;
#X obj 153 -16 inlet;
#X obj 195 -12 inlet;
#X obj 233 -15 inlet;
#X obj 247 460 outlet;
#X obj 303 463 outlet;
#X obj 353 464 outlet;
#X obj 400 466 outlet;
#X connect 0 0 1 1;
#X connect 0 0 28 0;
#X connect 1 0 21 0;
#X connect 2 0 7 0;
#X connect 3 0 9 0;
#X connect 4 0 10 1;
#X connect 4 1 10 2;
#X connect 4 2 10 3;
#X connect 4 3 10 4;
#X connect 5 0 4 0;
#X connect 6 0 1 2;
#X connect 6 0 29 0;
#X connect 7 0 11 1;
#X connect 7 1 11 2;
#X connect 7 2 11 3;
#X connect 7 3 11 4;
#X connect 8 0 1 3;
#X connect 8 0 30 0;
#X connect 9 0 12 1;
#X connect 9 1 12 2;
#X connect 9 2 12 3;
#X connect 9 3 12 4;
#X connect 10 0 0 0;
#X connect 11 0 6 0;
#X connect 12 0 8 0;
#X connect 13 0 16 0;
#X connect 14 0 1 0;
#X connect 16 0 10 0;
#X connect 16 0 11 0;
#X connect 16 0 12 0;
#X connect 16 0 19 0;
#X connect 17 0 18 0;
#X connect 18 0 19 1;
#X connect 18 1 19 2;
#X connect 18 2 19 3;
#X connect 18 3 19 4;
#X connect 19 0 20 0;
#X connect 20 0 21 1;
#X connect 20 0 22 0;
#X connect 21 0 15 0;
#X connect 22 0 27 0;
#X connect 23 0 17 0;
#X connect 24 0 5 0;
#X connect 25 0 2 0;
#X connect 26 0 3 0;
#X restore 110 195 pd directionEQ;
#X text 320 90 values for bass;
#X text 321 117 values for mid;
#X text 324 143 values for high;
#X text 322 49 values for VOLUME;
#X obj 136 7 loadbang;
#X msg 216 23 bang;
#N canvas 734 249 450 300 bangonfirst 0;
#X obj 151 79 inlet;
#X floatatom 153 136 5 0 0 0 - - -;
#X obj 154 161 change;
#X msg 152 108 1;
#X obj 157 208 outlet;
#X msg 155 183 bang;
#X connect 0 0 3 0;
#X connect 1 0 2 0;
#X connect 2 0 5 0;
#X connect 3 0 1 0;
#X connect 5 0 4 0;
#X restore 125 28 pd bangonfirst;
#X floatatom 170 245 5 0 0 0 - - -;
#X floatatom 206 247 5 0 0 0 - - -;
#X floatatom 243 248 5 0 0 0 - - -;
#X floatatom 133 245 5 0 0 0 - - -;
#X obj 70 255 outlet~;
#X obj 32 45 inlet~;
#X obj 80 45 inlet;
#X obj 297 15 r v;
#X obj 329 15 r b;
#X obj 359 16 r m;
#X obj 389 18 r h;
#X connect 0 0 12 0;
#X connect 0 1 11 0;
#X connect 0 2 8 0;
#X connect 0 3 9 0;
#X connect 0 4 10 0;
#X connect 5 0 6 0;
#X connect 7 0 6 0;
#X connect 13 0 0 0;
#X connect 14 0 0 1;
#X connect 14 0 7 0;
#X connect 15 0 0 2;
#X connect 16 0 0 3;
#X connect 17 0 0 4;
#X connect 18 0 0 5;
