#N canvas 751 118 450 300 10;
#X obj 87 71 openpanel;
#X obj 87 52 bng 15 250 50 0 empty empty empty 17 7 0 10 -262144 -1
-1;
#X msg 87 91 open \$1;
#X obj 87 129 readsf~ 2;
#X msg 24 92 start;
#X msg 24 112 stop;
#X obj 88 175 dac~ 1 2;
#X connect 0 0 2 0;
#X connect 1 0 0 0;
#X connect 2 0 3 0;
#X connect 3 0 6 0;
#X connect 3 1 6 1;
#X connect 4 0 3 0;
#X connect 5 0 3 0;
