#N canvas 383 108 450 300 10;
#X declare -lib mrpeach;
#N canvas 131 116 985 355 androidstuff 0;
#X obj 18 151 outlet;
#X obj 64 152 outlet;
#X obj 109 152 outlet;
#X obj 326 154 outlet;
#X obj 367 153 outlet;
#X obj 161 150 outlet;
#X obj 202 150 outlet;
#X obj 246 152 outlet;
#X obj 38 -29 import mrpeach;
#X obj 38 25 unpackOSC;
#X obj 20 90 unpack f f f;
#X obj 325 110 unpack f f;
#X obj 38 51 routeOSC /acc /touch /ori;
#X obj 175 114 unpack f f f;
#X obj 38 -2 udpreceive 8000;
#X connect 9 0 12 0;
#X connect 10 0 0 0;
#X connect 10 1 1 0;
#X connect 10 2 2 0;
#X connect 11 0 3 0;
#X connect 11 1 4 0;
#X connect 12 0 10 0;
#X connect 12 1 11 0;
#X connect 12 2 13 0;
#X connect 13 0 5 0;
#X connect 13 1 6 0;
#X connect 13 2 7 0;
#X connect 14 0 9 0;
#X restore 84 10 pd androidstuff;
