#N canvas 397 22 776 578 10;
#X obj 264 329 %;
#X obj 264 354 +;
#X obj 264 377 %;
#X msg 307 267 360;
#X floatatom 318 479 5 0 0 0 - - -;
#X floatatom 250 421 5 0 0 0 - - -;
#X msg 261 223 3.14159;
#X floatatom 158 222 5 0 0 0 - - -;
#X obj 215 289 *;
#X obj 253 307 /;
#X obj 259 244 * 2;
#X obj 394 84 inlet;
#X obj 452 86 inlet;
#X obj 506 87 inlet;
#X obj 579 88 inlet;
#X obj 150 183 inlet;
#X obj 318 516 outlet;
#X text 148 -47 This This patch is rather complicated \, but works
in a simple way! The input is: 1 the value of the angle towards the
ear \, spanning from [-3.14 \, 0] and from [0 \, 3.14] \, the values
-3.14 and 3.14 are similar Rest of the inputs work this way: When the
input is from 0 to pi/2 the output value span is between input value
provided in 1-2. When the input is from pi/2 to pi/2 the output value
span is between input value provided in 2-3 etc This is used to map
a direction to a specific value.;
#N canvas 734 249 450 300 bangonfirst 0;
#X obj 151 79 inlet;
#X floatatom 153 136 5 0 0 0 - - -;
#X obj 154 161 change;
#X msg 152 108 1;
#X obj 157 208 outlet;
#X msg 155 183 bang;
#X connect 0 0 3 0;
#X connect 1 0 2 0;
#X connect 2 0 5 0;
#X connect 3 0 1 0;
#X connect 5 0 4 0;
#X restore 329 161 pd bangonfirst;
#N canvas 140 35 1076 523 directionToValueScaler 0;
#X floatatom 356 150 5 0 0 0 - - -;
#X floatatom 424 504 5 0 0 0 - - -;
#N canvas 765 340 450 300 values 0;
#X obj 158 22 inlet;
#X msg 223 51 1000;
#X obj 119 134 / 4;
#X obj 182 134 * 2;
#X obj 237 134 * 3;
#X msg 67 134 0;
#X floatatom 59 218 5 0 0 0 - - -;
#X floatatom 154 220 5 0 0 0 - - -;
#X floatatom 223 218 5 0 0 0 - - -;
#X floatatom 288 212 5 0 0 0 - - -;
#X floatatom 347 218 5 0 0 0 - - -;
#X obj 84 269 outlet;
#X obj 137 270 outlet;
#X obj 191 276 outlet;
#X obj 247 272 outlet;
#X obj 324 271 outlet;
#X connect 0 0 5 0;
#X connect 0 0 10 0;
#X connect 0 0 2 0;
#X connect 1 0 10 0;
#X connect 2 0 7 0;
#X connect 2 0 3 0;
#X connect 2 0 4 0;
#X connect 3 0 8 0;
#X connect 4 0 9 0;
#X connect 5 0 6 0;
#X connect 6 0 11 0;
#X connect 7 0 12 0;
#X connect 8 0 13 0;
#X connect 9 0 14 0;
#X connect 10 0 15 0;
#X restore 476 150 pd values;
#X floatatom 206 310 5 0 0 0 - - -;
#X floatatom 246 311 5 0 0 0 - - -;
#X floatatom 410 349 5 0 0 0 - - -;
#X floatatom 450 350 5 0 0 0 - - -;
#X floatatom 562 358 5 0 0 0 - - -;
#X floatatom 602 359 5 0 0 0 - - -;
#X floatatom 708 365 5 0 0 0 - - -;
#X floatatom 748 366 5 0 0 0 - - -;
#X obj 421 555 outlet;
#X obj 886 127 inlet;
#X obj 928 130 inlet;
#X obj 793 127 inlet;
#X obj 838 125 inlet;
#X obj 509 116 inlet;
#X obj 346 117 inlet;
#X obj 719 204 int;
#X obj 758 205 int;
#X obj 799 206 int;
#X obj 840 208 int;
#X obj 576 399 scalesubroutine;
#X obj 745 400 scalesubroutine;
#X obj 405 400 scalesubroutine;
#X obj 204 411 scalesubroutine;
#X connect 0 0 22 0;
#X connect 0 0 23 0;
#X connect 0 0 24 0;
#X connect 0 0 25 0;
#X connect 1 0 11 0;
#X connect 2 0 3 0;
#X connect 2 1 4 0;
#X connect 2 1 5 0;
#X connect 2 2 6 0;
#X connect 2 2 7 0;
#X connect 2 3 8 0;
#X connect 2 3 9 0;
#X connect 2 4 10 0;
#X connect 3 0 25 1;
#X connect 4 0 25 2;
#X connect 5 0 24 1;
#X connect 6 0 24 2;
#X connect 7 0 22 1;
#X connect 8 0 22 2;
#X connect 9 0 23 1;
#X connect 10 0 23 2;
#X connect 12 0 20 0;
#X connect 13 0 21 0;
#X connect 14 0 18 0;
#X connect 15 0 19 0;
#X connect 16 0 2 0;
#X connect 17 0 0 0;
#X connect 18 0 23 4;
#X connect 18 0 25 3;
#X connect 19 0 24 3;
#X connect 19 0 25 4;
#X connect 20 0 22 3;
#X connect 20 0 24 4;
#X connect 21 0 22 4;
#X connect 21 0 23 3;
#X connect 22 0 1 0;
#X connect 23 0 1 0;
#X connect 24 0 1 0;
#X connect 25 0 1 0;
#X restore 318 442 pd directionToValueScaler;
#X connect 0 0 1 0;
#X connect 1 0 2 0;
#X connect 2 0 19 0;
#X connect 2 0 5 0;
#X connect 3 0 19 1;
#X connect 3 0 0 1;
#X connect 3 0 1 1;
#X connect 3 0 2 1;
#X connect 3 0 8 1;
#X connect 4 0 16 0;
#X connect 6 0 10 0;
#X connect 7 0 8 0;
#X connect 8 0 9 0;
#X connect 9 0 0 0;
#X connect 10 0 9 1;
#X connect 11 0 19 2;
#X connect 11 0 18 0;
#X connect 12 0 19 3;
#X connect 12 0 18 0;
#X connect 13 0 19 4;
#X connect 13 0 18 0;
#X connect 14 0 19 5;
#X connect 14 0 18 0;
#X connect 15 0 7 0;
#X connect 18 0 3 0;
#X connect 18 0 6 0;
#X connect 19 0 4 0;
