#N canvas 277 165 630 367 10;
#X obj 89 47 inlet~;
#X obj 172 303 outlet~;
#X obj 235 40 inlet;
#X obj 273 39 inlet;
#X obj 314 40 inlet;
#X obj 235 67 - 100;
#X obj 274 66 - 100;
#X obj 312 63 - 100;
#N canvas 502 340 500 315 eq 0;
#X obj 67 239 outlet~;
#X obj 65 134 biquad~;
#X obj 66 154 biquad~;
#X obj 66 174 biquad~;
#X obj 194 134 biquad~;
#X obj 193 154 biquad~;
#X obj 194 174 biquad~;
#X obj 163 111 bandpass 1175 490;
#X obj 305 111 highpass 2350 130;
#X obj 334 134 biquad~;
#X obj 334 154 biquad~;
#X obj 163 25 loadbang;
#X obj 193 239 outlet~;
#X obj 335 239 outlet~;
#X obj 66 25 inlet~ signal;
#X obj 35 110 lowpass 500 310;
#X connect 1 0 2 0;
#X connect 2 0 3 0;
#X connect 3 0 0 0;
#X connect 4 0 5 0;
#X connect 5 0 6 0;
#X connect 6 0 12 0;
#X connect 7 0 4 0;
#X connect 7 0 5 0;
#X connect 7 0 6 0;
#X connect 8 0 9 0;
#X connect 8 0 10 0;
#X connect 9 0 10 0;
#X connect 10 0 13 0;
#X connect 11 0 7 0;
#X connect 11 0 8 0;
#X connect 11 0 15 0;
#X connect 14 0 1 0;
#X connect 14 0 4 0;
#X connect 14 0 9 0;
#X connect 15 0 1 0;
#X connect 15 0 2 0;
#X connect 15 0 3 0;
#X restore 89 85 pd eq;
#N canvas 401 243 560 501 mixer 0;
#X obj -207 32 inlet~ bass;
#X obj -117 32 inlet~ mids;
#X obj -31 32 inlet~ highs;
#X obj 87 35 inlet bass;
#X obj 127 60 inlet mids;
#X obj 157 86 inlet highs;
#X obj 111 235 *~;
#X obj 141 235 *~;
#X obj 71 235 *~;
#X obj 80 114 expr ($f1 / 100) + 1;
#X obj 131 145 expr ($f1 / 100) + 1;
#X obj 159 185 expr ($f1 / 100) + 1;
#X obj 64 374 outlet~;
#X connect 0 0 8 0;
#X connect 1 0 6 0;
#X connect 2 0 7 0;
#X connect 3 0 9 0;
#X connect 4 0 10 0;
#X connect 5 0 11 0;
#X connect 6 0 12 0;
#X connect 7 0 12 0;
#X connect 8 0 12 0;
#X connect 9 0 8 1;
#X connect 10 0 6 1;
#X connect 11 0 7 1;
#X restore 170 246 pd mixer;
#X connect 0 0 8 0;
#X connect 2 0 5 0;
#X connect 3 0 6 0;
#X connect 4 0 7 0;
#X connect 5 0 9 3;
#X connect 6 0 9 4;
#X connect 7 0 9 5;
#X connect 8 0 9 0;
#X connect 8 1 9 1;
#X connect 8 2 9 2;
#X connect 9 0 1 0;
