#N canvas 52 22 1228 756 10;
#X declare -lib mrpeach;
#X obj 123 29 grid grid2 200 0 199 200 0 199 1 1 1 10 10 219 125;
#X obj 437 27 grid grid3 200 0 199 200 0 199 1 1 1 10 10 403 2;
#X obj 736 29 grid grid4 200 0 199 200 0 199 1 1 1 10 10 987 16;
#X text 220 4 YOU;
#X text 479 0 SPEAKER (LEFT);
#X text 787 3 SPEAKER (RIGHT);
#X floatatom 124 232 5 0 0 0 - - -;
#X floatatom 289 231 5 0 0 0 - - -;
#X floatatom 437 229 5 0 0 0 - - -;
#X floatatom 597 228 5 0 0 0 - - -;
#X floatatom 737 232 5 0 0 0 - - -;
#X floatatom 902 231 5 0 0 0 - - -;
#X obj 125 249 s youX;
#X obj 283 248 s youY;
#X obj 437 245 s leftX;
#X obj 590 245 s leftY;
#X obj 737 249 s rightX;
#X obj 886 249 s rightY;
#X obj 205 546 s leftSpeakerLeftEar;
#X obj 203 589 s leftSpeakerRightEar;
#X obj 211 638 s rightSpeakerRightEar;
#X obj 210 680 s rightSpeakerLeftEar;
#N canvas 634 403 450 300 AngleData 0;
#X obj 22 93 outlet;
#X obj 78 90 outlet;
#X obj 142 88 outlet;
#X obj 207 89 outlet;
#X obj 327 -60 inlet;
#X floatatom 32 -35 5 0 0 0 - - -;
#X floatatom 118 -33 5 0 0 0 - - -;
#X floatatom 70 -35 5 0 0 0 - - -;
#X floatatom 156 -33 5 0 0 0 - - -;
#N canvas 131 116 985 355 androidstuff 0;
#X obj 18 151 outlet;
#X obj 64 152 outlet;
#X obj 109 152 outlet;
#X obj 326 154 outlet;
#X obj 367 153 outlet;
#X obj 161 150 outlet;
#X obj 202 150 outlet;
#X obj 246 152 outlet;
#X obj 38 -29 import mrpeach;
#X obj 38 25 unpackOSC;
#X obj 20 90 unpack f f f;
#X obj 325 110 unpack f f;
#X obj 38 51 routeOSC /acc /touch /ori;
#X obj 175 114 unpack f f f;
#X obj 38 -2 udpreceive 8000;
#X connect 9 0 12 0;
#X connect 10 0 0 0;
#X connect 10 1 1 0;
#X connect 10 2 2 0;
#X connect 11 0 3 0;
#X connect 11 1 4 0;
#X connect 12 0 10 0;
#X connect 12 1 11 0;
#X connect 12 2 13 0;
#X connect 13 0 5 0;
#X connect 13 1 6 0;
#X connect 13 2 7 0;
#X connect 14 0 9 0;
#X restore 223 -55 pd androidstuff;
#N canvas 735 22 450 300 midAngleReset 0;
#X floatatom 122 66 5 0 0 0 - - -;
#X obj 145 130 % 360;
#X obj 145 185 -;
#X obj 204 161 int;
#X msg 205 123 bang;
#X floatatom 144 215 5 0 0 0 - - -;
#X floatatom 142 358 5 0 0 0 - - -;
#X obj 141 268 % 360;
#X obj 143 242 + 540;
#X obj 221 21 inlet;
#X obj 102 23 inlet;
#X obj 130 385 outlet;
#X obj 259 283 - 180;
#X obj 262 336 * 3.14159;
#X obj 261 309 / 180;
#X connect 0 0 1 0;
#X connect 1 0 3 1;
#X connect 1 0 2 0;
#X connect 2 0 5 0;
#X connect 3 0 2 1;
#X connect 4 0 3 0;
#X connect 5 0 8 0;
#X connect 6 0 11 0;
#X connect 7 0 12 0;
#X connect 8 0 7 0;
#X connect 9 0 4 0;
#X connect 10 0 0 0;
#X connect 12 0 14 0;
#X connect 13 0 6 0;
#X connect 14 0 13 0;
#X restore 236 -32 pd midAngleReset;
#X floatatom 233 -9 5 0 0 0 - - -;
#N canvas 568 365 675 313 speakerangles 0;
#X obj 38 262 outlet;
#X obj 339 253 outlet;
#N canvas 299 209 694 459 leftangle 0;
#X obj -1590 -1658 expr if($f1<=$f3 && $f2 <= $f4 \, 1 \, 0) \; if($f1<=$f3
&& $f2 > $f4 \, 1 \, 0) \; if($f1>$f3 && $f2 > $f4 \, 1 \, 0) \; if($f1>$f3
&& $f2 <= $f4 \, 1 \, 0) \;;
#X floatatom -1594 -1555 5 0 0 0 - - -;
#X floatatom -1506 -1551 5 0 0 0 - - -;
#X floatatom -1429 -1553 5 0 0 0 - - -;
#X floatatom -1366 -1549 5 0 0 0 - - -;
#N canvas 709 326 450 300 valchange 0;
#X obj 89 24 inlet;
#X obj 152 24 inlet;
#X obj 210 24 inlet;
#X obj 274 25 inlet;
#X obj 108 82 int;
#X obj 166 76 int;
#X obj 217 80 int;
#X obj 273 81 int;
#X msg 37 73 bang;
#X obj 80 166 outlet;
#X obj 133 169 outlet;
#X obj 197 166 outlet;
#X obj 268 172 outlet;
#X connect 0 0 4 1;
#X connect 0 0 8 0;
#X connect 1 0 5 1;
#X connect 1 0 8 0;
#X connect 2 0 6 1;
#X connect 2 0 8 0;
#X connect 3 0 7 1;
#X connect 3 0 8 0;
#X connect 4 0 9 0;
#X connect 5 0 10 0;
#X connect 6 0 11 0;
#X connect 7 0 12 0;
#X connect 8 0 4 0;
#X connect 8 0 5 0;
#X connect 8 0 6 0;
#X connect 8 0 7 0;
#X restore -1593 -1716 pd valchange;
#N canvas 86 119 450 300 angle 0;
#X obj 57 40 inlet;
#X obj 134 41 inlet;
#X obj 206 39 inlet;
#X obj 270 39 inlet;
#X obj 215 124 -;
#X obj 132 121 -;
#X obj 175 172 /;
#X obj 175 208 abs;
#X obj 177 243 atan;
#X obj 178 275 outlet;
#X floatatom 262 194 5 0 0 0 - - -;
#X floatatom 268 156 5 0 0 0 - - -;
#X floatatom 5 78 5 0 0 0 - - -;
#X floatatom -41 233 5 0 0 0 - - -;
#X obj -104 187 expr if ($f1 == 0 \, 100 \, $f3) \;;
#X msg -80 123 bang;
#X connect 0 0 5 0;
#X connect 1 0 4 0;
#X connect 2 0 5 1;
#X connect 3 0 4 1;
#X connect 4 0 6 0;
#X connect 4 0 11 0;
#X connect 4 0 15 0;
#X connect 4 0 14 1;
#X connect 5 0 6 1;
#X connect 5 0 12 0;
#X connect 5 0 15 0;
#X connect 5 0 14 0;
#X connect 6 0 10 0;
#X connect 6 0 14 2;
#X connect 7 0 8 0;
#X connect 8 0 9 0;
#X connect 14 0 7 0;
#X connect 14 0 13 0;
#X connect 15 0 14 0;
#X restore -1734 -1625 pd angle;
#X floatatom -1682 -1550 5 0 0 0 - - -;
#X floatatom -1664 -1409 5 0 0 0 - - -;
#N canvas 659 300 420 391 leftanglecalc 0;
#X msg 30 78 3.14159;
#X obj 80 21 inlet;
#X obj 147 21 inlet;
#X obj 218 20 inlet;
#X obj 284 20 inlet;
#X obj 354 22 inlet;
#X obj 31 115 / 2;
#X floatatom 22 183 5 0 0 0 - - -;
#X obj 76 148 -;
#X floatatom 76 183 5 0 0 0 - - -;
#X obj 146 64 +;
#X floatatom 152 138 5 0 0 0 - - -;
#X floatatom 358 147 5 0 0 0 - - -;
#X floatatom 231 136 5 0 0 0 - - -;
#X floatatom 306 145 5 0 0 0 - - -;
#X obj 227 98 * -1;
#X obj 303 118 * -1;
#N canvas 69 277 472 309 givaangle 0;
#X obj 255 46 inlet;
#X obj 309 46 inlet;
#X obj 362 47 inlet;
#X obj 415 49 inlet;
#X obj 31 46 inlet;
#X obj 85 46 inlet;
#X obj 138 47 inlet;
#X obj 191 49 inlet;
#X obj 137 170 *;
#X obj 205 170 *;
#X obj 255 173 *;
#X obj 315 174 *;
#X floatatom 136 213 5 0 0 0 - - -;
#X floatatom 202 211 5 0 0 0 - - -;
#X floatatom 242 219 5 0 0 0 - - -;
#X floatatom 306 224 5 0 0 0 - - -;
#X obj 133 311 change;
#X obj 302 311 change;
#X obj 242 311 change;
#X obj 192 310 change;
#X floatatom 218 377 5 0 0 0 - - -;
#X obj 97 256 moses 1;
#X obj 160 261 moses 1;
#X obj 217 262 moses 1;
#X obj 290 265 moses 1;
#X obj 75 115 + 10;
#X obj 36 113 + 10;
#X obj 112 116 + 10;
#X obj 149 119 + 10;
#X obj 218 413 - 10;
#X obj 217 448 outlet;
#X connect 0 0 8 1;
#X connect 1 0 9 1;
#X connect 2 0 10 1;
#X connect 3 0 11 1;
#X connect 4 0 26 0;
#X connect 5 0 25 0;
#X connect 6 0 27 0;
#X connect 7 0 28 0;
#X connect 8 0 12 0;
#X connect 9 0 13 0;
#X connect 10 0 14 0;
#X connect 11 0 15 0;
#X connect 12 0 21 0;
#X connect 13 0 22 0;
#X connect 14 0 23 0;
#X connect 15 0 24 0;
#X connect 16 0 20 0;
#X connect 17 0 20 0;
#X connect 18 0 20 0;
#X connect 19 0 20 0;
#X connect 20 0 29 0;
#X connect 21 1 16 0;
#X connect 22 1 19 0;
#X connect 23 1 18 0;
#X connect 24 1 17 0;
#X connect 25 0 9 0;
#X connect 26 0 8 0;
#X connect 27 0 10 0;
#X connect 28 0 11 0;
#X connect 29 0 30 0;
#X restore 226 259 pd givaangle;
#X obj 221 320 outlet;
#X connect 0 0 6 0;
#X connect 1 0 0 0;
#X connect 1 0 8 1;
#X connect 1 0 12 0;
#X connect 2 0 17 4;
#X connect 3 0 17 5;
#X connect 4 0 17 6;
#X connect 5 0 17 7;
#X connect 6 0 7 0;
#X connect 6 0 8 0;
#X connect 7 0 10 0;
#X connect 8 0 9 0;
#X connect 9 0 10 1;
#X connect 10 0 11 0;
#X connect 11 0 15 0;
#X connect 11 0 17 0;
#X connect 12 0 16 0;
#X connect 12 0 17 3;
#X connect 13 0 17 1;
#X connect 14 0 17 2;
#X connect 15 0 13 0;
#X connect 16 0 14 0;
#X connect 17 0 18 0;
#X restore -1663 -1449 pd leftanglecalc;
#X obj -1669 -1367 outlet;
#X obj -1680 -1770 inlet;
#X obj -1583 -1771 inlet;
#X obj -1444 -1770 inlet;
#X obj -1520 -1769 inlet;
#X connect 0 0 1 0;
#X connect 0 1 2 0;
#X connect 0 2 3 0;
#X connect 0 3 4 0;
#X connect 1 0 9 1;
#X connect 2 0 9 2;
#X connect 3 0 9 3;
#X connect 4 0 9 4;
#X connect 5 0 0 0;
#X connect 5 0 6 0;
#X connect 5 1 0 1;
#X connect 5 1 6 1;
#X connect 5 2 0 2;
#X connect 5 2 6 2;
#X connect 5 3 0 3;
#X connect 5 3 6 3;
#X connect 6 0 7 0;
#X connect 7 0 9 0;
#X connect 8 0 10 0;
#X connect 9 0 8 0;
#X connect 11 0 5 0;
#X connect 12 0 5 1;
#X connect 13 0 5 3;
#X connect 14 0 5 2;
#X restore 41 150 pd leftangle;
#N canvas 299 209 694 459 rightangle 0;
#X obj -1590 -1658 expr if($f1<=$f3 && $f2 <= $f4 \, 1 \, 0) \; if($f1<=$f3
&& $f2 > $f4 \, 1 \, 0) \; if($f1>$f3 && $f2 > $f4 \, 1 \, 0) \; if($f1>$f3
&& $f2 <= $f4 \, 1 \, 0) \;;
#X floatatom -1594 -1555 5 0 0 0 - - -;
#X floatatom -1506 -1551 5 0 0 0 - - -;
#X floatatom -1429 -1553 5 0 0 0 - - -;
#X floatatom -1366 -1549 5 0 0 0 - - -;
#N canvas 709 326 450 300 valchange 0;
#X obj 89 24 inlet;
#X obj 152 24 inlet;
#X obj 210 24 inlet;
#X obj 274 25 inlet;
#X obj 108 82 int;
#X obj 166 76 int;
#X obj 217 80 int;
#X obj 273 81 int;
#X msg 37 73 bang;
#X obj 80 166 outlet;
#X obj 133 169 outlet;
#X obj 197 166 outlet;
#X obj 268 172 outlet;
#X connect 0 0 4 1;
#X connect 0 0 8 0;
#X connect 1 0 5 1;
#X connect 1 0 8 0;
#X connect 2 0 6 1;
#X connect 2 0 8 0;
#X connect 3 0 7 1;
#X connect 3 0 8 0;
#X connect 4 0 9 0;
#X connect 5 0 10 0;
#X connect 6 0 11 0;
#X connect 7 0 12 0;
#X connect 8 0 4 0;
#X connect 8 0 5 0;
#X connect 8 0 6 0;
#X connect 8 0 7 0;
#X restore -1593 -1716 pd valchange;
#N canvas 86 119 450 300 angle 0;
#X obj 57 40 inlet;
#X obj 134 41 inlet;
#X obj 206 39 inlet;
#X obj 270 39 inlet;
#X obj 215 124 -;
#X obj 132 121 -;
#X obj 175 172 /;
#X obj 175 208 abs;
#X obj 177 243 atan;
#X obj 178 275 outlet;
#X floatatom 262 194 5 0 0 0 - - -;
#X floatatom 268 156 5 0 0 0 - - -;
#X floatatom 5 78 5 0 0 0 - - -;
#X floatatom -41 233 5 0 0 0 - - -;
#X obj -104 187 expr if ($f1 == 0 \, 100 \, $f3) \;;
#X msg -80 123 bang;
#X connect 0 0 5 0;
#X connect 1 0 4 0;
#X connect 2 0 5 1;
#X connect 3 0 4 1;
#X connect 4 0 6 0;
#X connect 4 0 11 0;
#X connect 4 0 15 0;
#X connect 4 0 14 1;
#X connect 5 0 6 1;
#X connect 5 0 12 0;
#X connect 5 0 15 0;
#X connect 5 0 14 0;
#X connect 6 0 10 0;
#X connect 6 0 14 2;
#X connect 7 0 8 0;
#X connect 8 0 9 0;
#X connect 14 0 7 0;
#X connect 14 0 13 0;
#X connect 15 0 14 0;
#X restore -1734 -1625 pd angle;
#X floatatom -1682 -1550 5 0 0 0 - - -;
#X floatatom -1664 -1409 5 0 0 0 - - -;
#X obj -1669 -1367 outlet;
#X obj -1680 -1770 inlet;
#X obj -1583 -1771 inlet;
#X obj -1444 -1770 inlet;
#X obj -1520 -1769 inlet;
#N canvas 126 132 420 391 rightanglecalc 0;
#X msg 30 78 3.14159;
#X obj 80 21 inlet;
#X obj 147 21 inlet;
#X obj 218 20 inlet;
#X obj 284 20 inlet;
#X obj 354 22 inlet;
#X obj 31 115 / 2;
#X floatatom 22 183 5 0 0 0 - - -;
#X obj 76 148 -;
#X floatatom 76 183 5 0 0 0 - - -;
#X floatatom 152 138 5 0 0 0 - - -;
#X floatatom 347 122 5 0 0 0 - - -;
#X floatatom 224 154 5 0 0 0 - - -;
#N canvas 69 277 472 309 givaangle 0;
#X obj 255 46 inlet;
#X obj 309 46 inlet;
#X obj 362 47 inlet;
#X obj 415 49 inlet;
#X obj 31 46 inlet;
#X obj 85 46 inlet;
#X obj 138 47 inlet;
#X obj 191 49 inlet;
#X obj 137 170 *;
#X obj 205 170 *;
#X obj 255 173 *;
#X obj 315 174 *;
#X floatatom 136 213 5 0 0 0 - - -;
#X floatatom 202 211 5 0 0 0 - - -;
#X floatatom 242 219 5 0 0 0 - - -;
#X floatatom 306 224 5 0 0 0 - - -;
#X obj 133 311 change;
#X obj 302 311 change;
#X obj 242 311 change;
#X obj 192 310 change;
#X floatatom 218 377 5 0 0 0 - - -;
#X obj 97 256 moses 1;
#X obj 160 261 moses 1;
#X obj 217 262 moses 1;
#X obj 290 265 moses 1;
#X obj 75 115 + 10;
#X obj 36 113 + 10;
#X obj 112 116 + 10;
#X obj 149 119 + 10;
#X obj 218 413 - 10;
#X obj 217 448 outlet;
#X connect 0 0 8 1;
#X connect 1 0 9 1;
#X connect 2 0 10 1;
#X connect 3 0 11 1;
#X connect 4 0 26 0;
#X connect 5 0 25 0;
#X connect 6 0 27 0;
#X connect 7 0 28 0;
#X connect 8 0 12 0;
#X connect 9 0 13 0;
#X connect 10 0 14 0;
#X connect 11 0 15 0;
#X connect 12 0 21 0;
#X connect 13 0 22 0;
#X connect 14 0 23 0;
#X connect 15 0 24 0;
#X connect 16 0 20 0;
#X connect 17 0 20 0;
#X connect 18 0 20 0;
#X connect 19 0 20 0;
#X connect 20 0 29 0;
#X connect 21 1 16 0;
#X connect 22 1 19 0;
#X connect 23 1 18 0;
#X connect 24 1 17 0;
#X connect 25 0 9 0;
#X connect 26 0 8 0;
#X connect 27 0 10 0;
#X connect 28 0 11 0;
#X connect 29 0 30 0;
#X restore 226 259 pd givaangle;
#X obj 221 320 outlet;
#X obj 342 90 +;
#X obj 213 123 * -1;
#X obj 291 124 * -1;
#X floatatom 292 157 5 0 0 0 - - -;
#X connect 0 0 6 0;
#X connect 1 0 0 0;
#X connect 1 0 8 1;
#X connect 1 0 10 0;
#X connect 2 0 13 4;
#X connect 3 0 13 5;
#X connect 4 0 13 6;
#X connect 5 0 13 7;
#X connect 6 0 7 0;
#X connect 6 0 8 0;
#X connect 7 0 15 0;
#X connect 8 0 9 0;
#X connect 9 0 15 1;
#X connect 10 0 13 0;
#X connect 10 0 16 0;
#X connect 11 0 13 3;
#X connect 11 0 17 0;
#X connect 12 0 13 1;
#X connect 13 0 14 0;
#X connect 15 0 11 0;
#X connect 16 0 12 0;
#X connect 17 0 18 0;
#X connect 18 0 13 2;
#X restore -1662 -1456 pd rightanglecalc;
#X connect 0 0 1 0;
#X connect 0 1 2 0;
#X connect 0 2 3 0;
#X connect 0 3 4 0;
#X connect 1 0 14 1;
#X connect 2 0 14 2;
#X connect 3 0 14 3;
#X connect 4 0 14 4;
#X connect 5 0 0 0;
#X connect 5 0 6 0;
#X connect 5 1 0 1;
#X connect 5 1 6 1;
#X connect 5 2 0 2;
#X connect 5 2 6 2;
#X connect 5 3 0 3;
#X connect 5 3 6 3;
#X connect 6 0 7 0;
#X connect 7 0 14 0;
#X connect 8 0 9 0;
#X connect 10 0 5 0;
#X connect 11 0 5 1;
#X connect 12 0 5 3;
#X connect 13 0 5 2;
#X connect 14 0 8 0;
#X restore 318 145 pd rightangle;
#X floatatom 15 217 5 0 0 0 - - -;
#X floatatom 327 206 5 0 0 0 - - -;
#X obj 31 24 r youX;
#X obj 81 23 r youY;
#X obj 150 19 r leftX;
#X obj 210 23 r leftY;
#X obj 278 22 r rightX;
#X obj 340 25 r rightY;
#N canvas 299 209 694 459 rightangle 0;
#X obj -1590 -1658 expr if($f1<=$f3 && $f2 <= $f4 \, 1 \, 0) \; if($f1<=$f3
&& $f2 > $f4 \, 1 \, 0) \; if($f1>$f3 && $f2 > $f4 \, 1 \, 0) \; if($f1>$f3
&& $f2 <= $f4 \, 1 \, 0) \;;
#X floatatom -1594 -1555 5 0 0 0 - - -;
#X floatatom -1506 -1551 5 0 0 0 - - -;
#X floatatom -1429 -1553 5 0 0 0 - - -;
#X floatatom -1366 -1549 5 0 0 0 - - -;
#N canvas 709 326 450 300 valchange 0;
#X obj 89 24 inlet;
#X obj 152 24 inlet;
#X obj 210 24 inlet;
#X obj 274 25 inlet;
#X obj 108 82 int;
#X obj 166 76 int;
#X obj 217 80 int;
#X obj 273 81 int;
#X msg 37 73 bang;
#X obj 80 166 outlet;
#X obj 133 169 outlet;
#X obj 197 166 outlet;
#X obj 268 172 outlet;
#X connect 0 0 4 1;
#X connect 0 0 8 0;
#X connect 1 0 5 1;
#X connect 1 0 8 0;
#X connect 2 0 6 1;
#X connect 2 0 8 0;
#X connect 3 0 7 1;
#X connect 3 0 8 0;
#X connect 4 0 9 0;
#X connect 5 0 10 0;
#X connect 6 0 11 0;
#X connect 7 0 12 0;
#X connect 8 0 4 0;
#X connect 8 0 5 0;
#X connect 8 0 6 0;
#X connect 8 0 7 0;
#X restore -1593 -1716 pd valchange;
#N canvas 86 119 450 300 angle 0;
#X obj 57 40 inlet;
#X obj 134 41 inlet;
#X obj 206 39 inlet;
#X obj 270 39 inlet;
#X obj 215 124 -;
#X obj 132 121 -;
#X obj 175 172 /;
#X obj 175 208 abs;
#X obj 177 243 atan;
#X obj 178 275 outlet;
#X floatatom 262 194 5 0 0 0 - - -;
#X floatatom 268 156 5 0 0 0 - - -;
#X floatatom 5 78 5 0 0 0 - - -;
#X floatatom -41 233 5 0 0 0 - - -;
#X obj -104 187 expr if ($f1 == 0 \, 100 \, $f3) \;;
#X msg -80 123 bang;
#X connect 0 0 5 0;
#X connect 1 0 4 0;
#X connect 2 0 5 1;
#X connect 3 0 4 1;
#X connect 4 0 6 0;
#X connect 4 0 11 0;
#X connect 4 0 15 0;
#X connect 4 0 14 1;
#X connect 5 0 6 1;
#X connect 5 0 12 0;
#X connect 5 0 15 0;
#X connect 5 0 14 0;
#X connect 6 0 10 0;
#X connect 6 0 14 2;
#X connect 7 0 8 0;
#X connect 8 0 9 0;
#X connect 14 0 7 0;
#X connect 14 0 13 0;
#X connect 15 0 14 0;
#X restore -1734 -1625 pd angle;
#X floatatom -1682 -1550 5 0 0 0 - - -;
#X floatatom -1664 -1409 5 0 0 0 - - -;
#X obj -1669 -1367 outlet;
#X obj -1680 -1770 inlet;
#X obj -1583 -1771 inlet;
#X obj -1444 -1770 inlet;
#X obj -1520 -1769 inlet;
#N canvas 126 132 420 391 rightanglecalc 0;
#X msg 30 78 3.14159;
#X obj 80 21 inlet;
#X obj 147 21 inlet;
#X obj 218 20 inlet;
#X obj 284 20 inlet;
#X obj 354 22 inlet;
#X obj 31 115 / 2;
#X floatatom 22 183 5 0 0 0 - - -;
#X obj 76 148 -;
#X floatatom 76 183 5 0 0 0 - - -;
#X floatatom 152 138 5 0 0 0 - - -;
#X floatatom 347 122 5 0 0 0 - - -;
#X floatatom 224 154 5 0 0 0 - - -;
#N canvas 69 277 472 309 givaangle 0;
#X obj 255 46 inlet;
#X obj 309 46 inlet;
#X obj 362 47 inlet;
#X obj 415 49 inlet;
#X obj 31 46 inlet;
#X obj 85 46 inlet;
#X obj 138 47 inlet;
#X obj 191 49 inlet;
#X obj 137 170 *;
#X obj 205 170 *;
#X obj 255 173 *;
#X obj 315 174 *;
#X floatatom 136 213 5 0 0 0 - - -;
#X floatatom 202 211 5 0 0 0 - - -;
#X floatatom 242 219 5 0 0 0 - - -;
#X floatatom 306 224 5 0 0 0 - - -;
#X obj 133 311 change;
#X obj 302 311 change;
#X obj 242 311 change;
#X obj 192 310 change;
#X floatatom 218 377 5 0 0 0 - - -;
#X obj 97 256 moses 1;
#X obj 160 261 moses 1;
#X obj 217 262 moses 1;
#X obj 290 265 moses 1;
#X obj 75 115 + 10;
#X obj 36 113 + 10;
#X obj 112 116 + 10;
#X obj 149 119 + 10;
#X obj 218 413 - 10;
#X obj 217 448 outlet;
#X connect 0 0 8 1;
#X connect 1 0 9 1;
#X connect 2 0 10 1;
#X connect 3 0 11 1;
#X connect 4 0 26 0;
#X connect 5 0 25 0;
#X connect 6 0 27 0;
#X connect 7 0 28 0;
#X connect 8 0 12 0;
#X connect 9 0 13 0;
#X connect 10 0 14 0;
#X connect 11 0 15 0;
#X connect 12 0 21 0;
#X connect 13 0 22 0;
#X connect 14 0 23 0;
#X connect 15 0 24 0;
#X connect 16 0 20 0;
#X connect 17 0 20 0;
#X connect 18 0 20 0;
#X connect 19 0 20 0;
#X connect 20 0 29 0;
#X connect 21 1 16 0;
#X connect 22 1 19 0;
#X connect 23 1 18 0;
#X connect 24 1 17 0;
#X connect 25 0 9 0;
#X connect 26 0 8 0;
#X connect 27 0 10 0;
#X connect 28 0 11 0;
#X connect 29 0 30 0;
#X restore 226 259 pd givaangle;
#X obj 221 320 outlet;
#X obj 342 90 +;
#X obj 213 123 * -1;
#X obj 291 124 * -1;
#X floatatom 292 157 5 0 0 0 - - -;
#X connect 0 0 6 0;
#X connect 1 0 0 0;
#X connect 1 0 8 1;
#X connect 1 0 10 0;
#X connect 2 0 13 4;
#X connect 3 0 13 5;
#X connect 4 0 13 6;
#X connect 5 0 13 7;
#X connect 6 0 7 0;
#X connect 6 0 8 0;
#X connect 7 0 15 0;
#X connect 8 0 9 0;
#X connect 9 0 15 1;
#X connect 10 0 13 0;
#X connect 10 0 16 0;
#X connect 11 0 13 3;
#X connect 11 0 17 0;
#X connect 12 0 13 1;
#X connect 13 0 14 0;
#X connect 15 0 11 0;
#X connect 16 0 12 0;
#X connect 17 0 18 0;
#X connect 18 0 13 2;
#X restore -1662 -1456 pd rightanglecalc;
#X connect 0 0 1 0;
#X connect 0 1 2 0;
#X connect 0 2 3 0;
#X connect 0 3 4 0;
#X connect 1 0 14 1;
#X connect 2 0 14 2;
#X connect 3 0 14 3;
#X connect 4 0 14 4;
#X connect 5 0 0 0;
#X connect 5 0 6 0;
#X connect 5 1 0 1;
#X connect 5 1 6 1;
#X connect 5 2 0 2;
#X connect 5 2 6 2;
#X connect 5 3 0 3;
#X connect 5 3 6 3;
#X connect 6 0 7 0;
#X connect 7 0 14 0;
#X connect 8 0 9 0;
#X connect 10 0 5 0;
#X connect 11 0 5 1;
#X connect 12 0 5 3;
#X connect 13 0 5 2;
#X connect 14 0 8 0;
#X restore 140 160 pd rightangle;
#X floatatom 138 212 5 0 0 0 - - -;
#N canvas 299 209 694 459 leftangle 0;
#X obj -1590 -1658 expr if($f1<=$f3 && $f2 <= $f4 \, 1 \, 0) \; if($f1<=$f3
&& $f2 > $f4 \, 1 \, 0) \; if($f1>$f3 && $f2 > $f4 \, 1 \, 0) \; if($f1>$f3
&& $f2 <= $f4 \, 1 \, 0) \;;
#X floatatom -1594 -1555 5 0 0 0 - - -;
#X floatatom -1506 -1551 5 0 0 0 - - -;
#X floatatom -1429 -1553 5 0 0 0 - - -;
#X floatatom -1366 -1549 5 0 0 0 - - -;
#N canvas 709 326 450 300 valchange 0;
#X obj 89 24 inlet;
#X obj 152 24 inlet;
#X obj 210 24 inlet;
#X obj 274 25 inlet;
#X obj 108 82 int;
#X obj 166 76 int;
#X obj 217 80 int;
#X obj 273 81 int;
#X msg 37 73 bang;
#X obj 80 166 outlet;
#X obj 133 169 outlet;
#X obj 197 166 outlet;
#X obj 268 172 outlet;
#X connect 0 0 4 1;
#X connect 0 0 8 0;
#X connect 1 0 5 1;
#X connect 1 0 8 0;
#X connect 2 0 6 1;
#X connect 2 0 8 0;
#X connect 3 0 7 1;
#X connect 3 0 8 0;
#X connect 4 0 9 0;
#X connect 5 0 10 0;
#X connect 6 0 11 0;
#X connect 7 0 12 0;
#X connect 8 0 4 0;
#X connect 8 0 5 0;
#X connect 8 0 6 0;
#X connect 8 0 7 0;
#X restore -1593 -1716 pd valchange;
#N canvas 86 119 450 300 angle 0;
#X obj 57 40 inlet;
#X obj 134 41 inlet;
#X obj 206 39 inlet;
#X obj 270 39 inlet;
#X obj 215 124 -;
#X obj 132 121 -;
#X obj 175 172 /;
#X obj 175 208 abs;
#X obj 177 243 atan;
#X obj 178 275 outlet;
#X floatatom 262 194 5 0 0 0 - - -;
#X floatatom 268 156 5 0 0 0 - - -;
#X floatatom 5 78 5 0 0 0 - - -;
#X floatatom -41 233 5 0 0 0 - - -;
#X obj -104 187 expr if ($f1 == 0 \, 100 \, $f3) \;;
#X msg -80 123 bang;
#X connect 0 0 5 0;
#X connect 1 0 4 0;
#X connect 2 0 5 1;
#X connect 3 0 4 1;
#X connect 4 0 6 0;
#X connect 4 0 11 0;
#X connect 4 0 15 0;
#X connect 4 0 14 1;
#X connect 5 0 6 1;
#X connect 5 0 12 0;
#X connect 5 0 15 0;
#X connect 5 0 14 0;
#X connect 6 0 10 0;
#X connect 6 0 14 2;
#X connect 7 0 8 0;
#X connect 8 0 9 0;
#X connect 14 0 7 0;
#X connect 14 0 13 0;
#X connect 15 0 14 0;
#X restore -1734 -1625 pd angle;
#X floatatom -1682 -1550 5 0 0 0 - - -;
#X floatatom -1664 -1409 5 0 0 0 - - -;
#N canvas 659 300 420 391 leftanglecalc 0;
#X msg 30 78 3.14159;
#X obj 80 21 inlet;
#X obj 147 21 inlet;
#X obj 218 20 inlet;
#X obj 284 20 inlet;
#X obj 354 22 inlet;
#X obj 31 115 / 2;
#X floatatom 22 183 5 0 0 0 - - -;
#X obj 76 148 -;
#X floatatom 76 183 5 0 0 0 - - -;
#X obj 146 64 +;
#X floatatom 152 138 5 0 0 0 - - -;
#X floatatom 358 147 5 0 0 0 - - -;
#X floatatom 231 136 5 0 0 0 - - -;
#X floatatom 306 145 5 0 0 0 - - -;
#X obj 227 98 * -1;
#X obj 303 118 * -1;
#N canvas 69 277 472 309 givaangle 0;
#X obj 255 46 inlet;
#X obj 309 46 inlet;
#X obj 362 47 inlet;
#X obj 415 49 inlet;
#X obj 31 46 inlet;
#X obj 85 46 inlet;
#X obj 138 47 inlet;
#X obj 191 49 inlet;
#X obj 137 170 *;
#X obj 205 170 *;
#X obj 255 173 *;
#X obj 315 174 *;
#X floatatom 136 213 5 0 0 0 - - -;
#X floatatom 202 211 5 0 0 0 - - -;
#X floatatom 242 219 5 0 0 0 - - -;
#X floatatom 306 224 5 0 0 0 - - -;
#X obj 133 311 change;
#X obj 302 311 change;
#X obj 242 311 change;
#X obj 192 310 change;
#X floatatom 218 377 5 0 0 0 - - -;
#X obj 97 256 moses 1;
#X obj 160 261 moses 1;
#X obj 217 262 moses 1;
#X obj 290 265 moses 1;
#X obj 75 115 + 10;
#X obj 36 113 + 10;
#X obj 112 116 + 10;
#X obj 149 119 + 10;
#X obj 218 413 - 10;
#X obj 217 448 outlet;
#X connect 0 0 8 1;
#X connect 1 0 9 1;
#X connect 2 0 10 1;
#X connect 3 0 11 1;
#X connect 4 0 26 0;
#X connect 5 0 25 0;
#X connect 6 0 27 0;
#X connect 7 0 28 0;
#X connect 8 0 12 0;
#X connect 9 0 13 0;
#X connect 10 0 14 0;
#X connect 11 0 15 0;
#X connect 12 0 21 0;
#X connect 13 0 22 0;
#X connect 14 0 23 0;
#X connect 15 0 24 0;
#X connect 16 0 20 0;
#X connect 17 0 20 0;
#X connect 18 0 20 0;
#X connect 19 0 20 0;
#X connect 20 0 29 0;
#X connect 21 1 16 0;
#X connect 22 1 19 0;
#X connect 23 1 18 0;
#X connect 24 1 17 0;
#X connect 25 0 9 0;
#X connect 26 0 8 0;
#X connect 27 0 10 0;
#X connect 28 0 11 0;
#X connect 29 0 30 0;
#X restore 226 259 pd givaangle;
#X obj 221 320 outlet;
#X connect 0 0 6 0;
#X connect 1 0 0 0;
#X connect 1 0 8 1;
#X connect 1 0 12 0;
#X connect 2 0 17 4;
#X connect 3 0 17 5;
#X connect 4 0 17 6;
#X connect 5 0 17 7;
#X connect 6 0 7 0;
#X connect 6 0 8 0;
#X connect 7 0 10 0;
#X connect 8 0 9 0;
#X connect 9 0 10 1;
#X connect 10 0 11 0;
#X connect 11 0 15 0;
#X connect 11 0 17 0;
#X connect 12 0 16 0;
#X connect 12 0 17 3;
#X connect 13 0 17 1;
#X connect 14 0 17 2;
#X connect 15 0 13 0;
#X connect 16 0 14 0;
#X connect 17 0 18 0;
#X restore -1663 -1449 pd leftanglecalc;
#X obj -1669 -1367 outlet;
#X obj -1680 -1770 inlet;
#X obj -1583 -1771 inlet;
#X obj -1444 -1770 inlet;
#X obj -1520 -1769 inlet;
#X connect 0 0 1 0;
#X connect 0 1 2 0;
#X connect 0 2 3 0;
#X connect 0 3 4 0;
#X connect 1 0 9 1;
#X connect 2 0 9 2;
#X connect 3 0 9 3;
#X connect 4 0 9 4;
#X connect 5 0 0 0;
#X connect 5 0 6 0;
#X connect 5 1 0 1;
#X connect 5 1 6 1;
#X connect 5 2 0 2;
#X connect 5 2 6 2;
#X connect 5 3 0 3;
#X connect 5 3 6 3;
#X connect 6 0 7 0;
#X connect 7 0 9 0;
#X connect 8 0 10 0;
#X connect 9 0 8 0;
#X connect 11 0 5 0;
#X connect 12 0 5 1;
#X connect 13 0 5 3;
#X connect 14 0 5 2;
#X restore 462 153 pd leftangle;
#X floatatom 436 220 5 0 0 0 - - -;
#X obj 159 257 outlet;
#X obj 444 256 outlet;
#X text 22 -76 This outputs: The angle of the left speaker to the left
ear The angle of the left speaker to the right ear The angle of the
right speaker to the right ear The angle of the right speaker to the
left ear;
#X connect 2 0 4 0;
#X connect 3 0 5 0;
#X connect 4 0 0 0;
#X connect 5 0 1 0;
#X connect 6 0 2 0;
#X connect 6 0 3 0;
#X connect 6 0 12 0;
#X connect 6 0 14 0;
#X connect 7 0 2 1;
#X connect 7 0 3 1;
#X connect 7 0 12 1;
#X connect 7 0 14 1;
#X connect 8 0 2 2;
#X connect 8 0 12 2;
#X connect 9 0 2 3;
#X connect 9 0 12 3;
#X connect 10 0 3 2;
#X connect 10 0 14 2;
#X connect 11 0 3 3;
#X connect 11 0 14 3;
#X connect 12 0 13 0;
#X connect 13 0 16 0;
#X connect 14 0 15 0;
#X connect 15 0 17 0;
#X restore 45 -67 pd speakerangles;
#N canvas 816 225 450 300 relativeangles 0;
#X obj 28 18 inlet;
#X obj 80 18 inlet;
#X obj 135 18 inlet;
#X obj 191 20 inlet;
#X obj 249 22 inlet;
#X floatatom -29 172 5 0 0 0 - - -;
#X obj -30 117 -;
#X msg -24 92 bang;
#N canvas 150 230 450 300 piinterval 0;
#X obj 126 56 inlet;
#X obj 135 205 outlet;
#X obj 134 112 tan;
#X obj 136 146 atan;
#X obj 134 87 / 2;
#X obj 136 168 * 2;
#X text 119 27 this enables to stay in the interval [-3.14 \, 3.14]
;
#X connect 0 0 4 0;
#X connect 2 0 3 0;
#X connect 3 0 5 0;
#X connect 4 0 2 0;
#X connect 5 0 1 0;
#X restore -30 142 pd piinterval;
#X floatatom 71 175 5 0 0 0 - - -;
#X msg 76 95 bang;
#N canvas 150 230 450 300 piinterval 0;
#X obj 126 56 inlet;
#X obj 135 205 outlet;
#X obj 134 112 tan;
#X obj 136 146 atan;
#X obj 134 87 / 2;
#X obj 136 168 * 2;
#X text 119 27 this enables to stay in the interval [-3.14 \, 3.14]
;
#X connect 0 0 4 0;
#X connect 2 0 3 0;
#X connect 3 0 5 0;
#X connect 4 0 2 0;
#X connect 5 0 1 0;
#X restore 70 145 pd piinterval;
#X floatatom 170 177 5 0 0 0 - - -;
#X msg 175 97 bang;
#N canvas 150 230 450 300 piinterval 0;
#X obj 126 56 inlet;
#X obj 135 205 outlet;
#X obj 134 112 tan;
#X obj 136 146 atan;
#X obj 134 87 / 2;
#X obj 136 168 * 2;
#X text 119 27 this enables to stay in the interval [-3.14 \, 3.14]
;
#X connect 0 0 4 0;
#X connect 2 0 3 0;
#X connect 3 0 5 0;
#X connect 4 0 2 0;
#X connect 5 0 1 0;
#X restore 169 147 pd piinterval;
#X floatatom 273 181 5 0 0 0 - - -;
#X obj 272 126 -;
#X msg 278 101 bang;
#N canvas 150 230 450 300 piinterval 0;
#X obj 126 56 inlet;
#X obj 135 205 outlet;
#X obj 134 112 tan;
#X obj 136 146 atan;
#X obj 134 87 / 2;
#X obj 136 168 * 2;
#X text 119 27 this enables to stay in the interval [-3.14 \, 3.14]
;
#X connect 0 0 4 0;
#X connect 2 0 3 0;
#X connect 3 0 5 0;
#X connect 4 0 2 0;
#X connect 5 0 1 0;
#X restore 272 151 pd piinterval;
#X obj 70 120 +;
#X obj 169 122 +;
#X obj -17 227 outlet;
#X obj 68 228 outlet;
#X obj 187 235 outlet;
#X obj 270 241 outlet;
#X connect 0 0 6 0;
#X connect 1 0 19 0;
#X connect 2 0 20 0;
#X connect 3 0 16 0;
#X connect 4 0 6 1;
#X connect 4 0 7 0;
#X connect 4 0 10 0;
#X connect 4 0 13 0;
#X connect 4 0 17 0;
#X connect 4 0 16 1;
#X connect 4 0 19 1;
#X connect 4 0 20 1;
#X connect 5 0 21 0;
#X connect 6 0 8 0;
#X connect 7 0 6 0;
#X connect 8 0 5 0;
#X connect 9 0 22 0;
#X connect 10 0 19 0;
#X connect 11 0 9 0;
#X connect 12 0 23 0;
#X connect 13 0 20 0;
#X connect 14 0 12 0;
#X connect 15 0 24 0;
#X connect 16 0 18 0;
#X connect 17 0 16 0;
#X connect 18 0 15 0;
#X connect 19 0 11 0;
#X connect 20 0 14 0;
#X restore 71 -7 pd relativeangles;
#X floatatom 24 51 5 0 0 0 - - -;
#X floatatom 58 50 5 0 0 0 - - -;
#X floatatom 166 51 5 0 0 0 - - -;
#X floatatom 217 52 5 0 0 0 - - -;
#X obj 379 -60 inlet;
#X msg 369 -10 0;
#X connect 4 0 10 1;
#X connect 5 0 13 0;
#X connect 6 0 13 2;
#X connect 7 0 13 1;
#X connect 8 0 13 3;
#X connect 9 3 10 0;
#X connect 10 0 11 0;
#X connect 11 0 13 4;
#X connect 12 0 5 0;
#X connect 12 1 7 0;
#X connect 12 2 6 0;
#X connect 12 3 8 0;
#X connect 13 0 14 0;
#X connect 13 1 15 0;
#X connect 13 2 16 0;
#X connect 13 3 17 0;
#X connect 14 0 0 0;
#X connect 15 0 1 0;
#X connect 16 0 2 0;
#X connect 17 0 3 0;
#X connect 18 0 19 0;
#X connect 19 0 13 4;
#X restore 91 682 pd AngleData;
#X floatatom 171 533 5 0 0 0 - - -;
#X floatatom 167 573 5 0 0 0 - - -;
#X floatatom 167 606 5 0 0 0 - - -;
#X floatatom 170 650 5 0 0 0 - - -;
#X text 965 612 values for bass;
#X text 965 639 values for mid;
#X text 968 665 values for high;
#X text 966 571 values for VOLUME;
#X obj 871 613 100 95 90 93;
#X obj 750 597 s v;
#X obj 750 625 s b;
#X obj 751 648 s m;
#X obj 751 672 s h;
#X msg 749 564 bang;
#N canvas 48 22 1228 756 AudioPlayer 0;
#X obj 60 25 inlet;
#X obj 158 26 inlet;
#X obj 322 22 inlet;
#X obj 127 108 PlaySound;
#X obj 289 407 SoundAndDirection;
#X obj -9 379 r leftSpeakerLeftEar;
#X obj 122 379 r leftSpeakerRightEar;
#X obj 280 371 r rightSpeakerRightEar;
#X obj 436 371 r rightSpeakerLeftEar;
#X obj 113 528 +~;
#X obj 307 532 +~;
#X obj 392 24 inlet;
#X msg 387 97 0;
#X msg 427 98 1;
#X obj 131 260 *~;
#X obj 222 258 *~;
#X obj 472 235 *~;
#X obj 405 239 *~;
#X msg 276 98 0;
#X msg 328 97 1;
#X obj 162 615 outlet~;
#X obj 248 615 outlet~;
#X text 61 -35 input 1 is the audio \, 2 volume \, 3 is for turning
on the virtual room system \, 4 is for turning it of;
#X obj 214 27 inlet;
#X obj 262 28 inlet;
#X obj -5 410 SoundAndDirection;
#X obj 121 407 SoundAndDirection;
#X obj 426 406 SoundAndDirection;
#X text 549 282 comment;
#X obj 150 562 Reverb;
#X obj 790 62 inlet;
#X obj 385 281 *~ 0.85;
#X obj 450 280 *~ 0.85;
#X connect 0 0 3 0;
#X connect 1 0 3 1;
#X connect 2 0 18 0;
#X connect 2 0 19 0;
#X connect 3 0 14 0;
#X connect 3 0 17 0;
#X connect 3 1 15 0;
#X connect 3 1 16 0;
#X connect 4 0 10 1;
#X connect 5 0 25 1;
#X connect 6 0 26 1;
#X connect 7 0 4 1;
#X connect 8 0 27 1;
#X connect 9 0 29 0;
#X connect 10 0 29 1;
#X connect 11 0 13 0;
#X connect 11 0 12 0;
#X connect 12 0 15 1;
#X connect 12 0 14 1;
#X connect 13 0 17 1;
#X connect 13 0 16 1;
#X connect 14 0 25 0;
#X connect 14 0 26 0;
#X connect 15 0 4 0;
#X connect 15 0 27 0;
#X connect 16 0 32 0;
#X connect 17 0 31 0;
#X connect 18 0 17 1;
#X connect 18 0 16 1;
#X connect 19 0 15 1;
#X connect 19 0 14 1;
#X connect 23 0 3 2;
#X connect 24 0 3 3;
#X connect 25 0 9 0;
#X connect 26 0 10 0;
#X connect 27 0 9 1;
#X connect 29 0 20 0;
#X connect 29 1 21 0;
#X connect 30 0 29 2;
#X connect 31 0 20 0;
#X connect 32 0 21 0;
#X restore 466 630 pd AudioPlayer;
#X msg 469 409 Audio;
#X obj 521 414 hsl 128 15 0 1 0 0 empty empty empty -2 -8 0 10 -262144
-1 -1 12700 1;
#X text 548 396 Volume;
#X text 466 383 AudioPlayer;
#X text 86 474 Android OSC data;
#X text 118 -22 Positions of you and speakers in the virtual room;
#X obj 482 679 dac~;
#X obj 523 461 hsl 128 15 0 1 0 0 empty empty empty -2 -8 0 10 -262144
-1 -1 12700 1;
#X obj 523 477 hsl 128 15 0 1 0 0 empty empty empty -2 -8 0 10 -262144
-1 -1 12700 1;
#X text 523 444 Left/right Speakervolume;
#X obj 545 659 env~;
#X obj 590 659 env~;
#X floatatom 544 681 5 0 0 0 - - -;
#X floatatom 598 680 5 0 0 0 - - -;
#X msg 599 559 VirtualRoom;
#X msg 600 587 Stereo;
#X obj 750 533 r setVals;
#X obj 456 432 s setVals;
#X text 748 485 Set values for filter and volume positions;
#X text 1022 494 a - towards;
#X text 1023 523 c - opposite;
#X text 1023 538 d - behind;
#X text 1022 509 b - face;
#X obj 524 523 hsl 128 15 0 0.2 0 0 empty empty empty -2 -8 0 10 -262144
-1 -1 12700 1;
#X text 522 506 reverb mix;
#X msg 90 495 Calibrate;
#X msg 105 537 reset;
#X obj 870 571 100 90 70 70;
#X obj 870 640 100 90 40 70;
#X obj 869 665 100 85 30 40;
#X text 62 302 Step guide:;
#X text 62 362 3 Press stereo or virtual room button at the audio player
;
#X text 63 318 1 Position yourself and the speakers on the grids;
#X text 63 334 2 Raise the volumes and reverb mix to desired values
\, don't hurt your ears!;
#X text 62 377 4 Make sure your Android device is connected;
#X text 64 393 5 Calibrate your android device by pressing the calibrate
button. When screen is facing you your head will be pointing forwards
in the virtual room.;
#X text 64 436 6 Press the Audio button to begin play the audio file
;
#X text 876 550 a b c d;
#X connect 0 0 6 0;
#X connect 0 1 7 0;
#X connect 1 0 8 0;
#X connect 1 1 9 0;
#X connect 2 0 10 0;
#X connect 2 1 11 0;
#X connect 6 0 12 0;
#X connect 7 0 13 0;
#X connect 8 0 14 0;
#X connect 9 0 15 0;
#X connect 10 0 16 0;
#X connect 11 0 17 0;
#X connect 22 0 23 0;
#X connect 22 1 24 0;
#X connect 22 2 25 0;
#X connect 22 3 26 0;
#X connect 23 0 18 0;
#X connect 24 0 19 0;
#X connect 25 0 20 0;
#X connect 26 0 21 0;
#X connect 31 0 33 0;
#X connect 36 0 31 0;
#X connect 36 0 65 0;
#X connect 36 0 66 0;
#X connect 36 0 67 0;
#X connect 37 0 44 0;
#X connect 37 0 48 0;
#X connect 37 1 44 1;
#X connect 37 1 49 0;
#X connect 38 0 37 0;
#X connect 38 0 55 0;
#X connect 39 0 37 1;
#X connect 45 0 37 2;
#X connect 46 0 37 3;
#X connect 48 0 50 0;
#X connect 49 0 51 0;
#X connect 52 0 37 4;
#X connect 53 0 37 5;
#X connect 54 0 36 0;
#X connect 61 0 37 6;
#X connect 63 0 22 0;
#X connect 64 0 22 1;
#X connect 65 0 32 0;
#X connect 66 0 34 0;
#X connect 67 0 35 0;
